<?xml version="1.0" encoding="utf-8"?>
<!-- Generator: Adobe Illustrator 24.3.0, SVG Export Plug-In . SVG Version: 6.00 Build 0)  -->
<svg version="1.1" id="Layer_1" xmlns="http://www.w3.org/2000/svg" xmlns:xlink="http://www.w3.org/1999/xlink" x="0px" y="0px"
	 viewBox="0 0 595.28 841.89" style="enable-background:new 0 0 595.28 841.89;" xml:space="preserve">
<style type="text/css">
	.st0{fill:#4266B0;}
	.st1{font-family:'Montserrat-Bold';}
	.st2{font-size:21px;}
</style>
<g>
	<text transform="matrix(1 0 0 1 189.6246 477.3128)" class="st0 st1 st2">Simplifying School Operations</text>
</g>
<g>
	<g>
		
			<ellipse transform="matrix(0.7071 -0.7071 0.7071 0.7071 -155.0288 487.018)" class="st0" cx="510.37" cy="430.65" rx="16.85" ry="16.85"/>
		<path class="st0" d="M102.11,387.9c-11.75-2.61-16.68-6.53-16.68-12.62c0-4.93,2.61-7.98,7.25-7.98c5.22,0,8.41,4.21,7.98,14.36
			c18.27,0.15,32.05,1.01,32.05,1.01c-0.44-24.94-14.79-38.57-41.04-38.43c-23.49,0-39.88,9.57-39.88,29.58
			c0,19,10.29,27.7,29.58,32.92c15.37,4.21,18.71,7.11,18.71,12.33c0,5.66-2.46,7.83-6.96,7.83c-6.38,0-9.28-5.66-9.43-15.37
			c-20.59,0.58-33.06,0.29-33.06,0.29c0.44,24.22,14.21,38.14,42.34,38.14c24.65,0,41.33-10,41.33-31.18
			C134.45,401.68,126.04,393.41,102.11,387.9z"/>
		<path class="st0" d="M226.78,354.62h-26.22c0,0-29.64,18.3-29.64,71.84h-4.23v-26.91v-6.96v-80.17h-25.27V447.5h24.04l1.23-1.91
			l22.95-34.55l14.89,36.47h27.32l-25.4-62.14L226.78,354.62z"/>
		<path class="st0" d="M293.16,358.99c-5.74-2.73-12.16-4.37-18.99-4.37c-6.69,0-13.25,1.64-18.98,4.37
			c-14.89,7.1-25.27,22.26-25.27,40.02v4.23c0,17.62,10.38,32.92,25.27,40.02c5.74,2.73,12.29,4.23,18.98,4.23
			c6.83,0,13.25-1.5,18.99-4.23c15.02-7.1,25.4-22.4,25.4-40.02v-4.23C318.56,381.26,308.18,366.1,293.16,358.99z M293.16,403.25
			c0,5.19-2.05,9.97-5.46,13.38c-3.42,3.41-8.2,5.6-13.52,5.6c-10.38,0-18.98-8.6-18.98-18.98v-4.23c0-10.52,8.6-18.99,18.98-18.99
			c5.33,0,10.11,2.05,13.52,5.46c3.41,3.55,5.46,8.19,5.46,13.52V403.25z"/>
		<rect x="364.45" y="358.86" class="st0" width="25.4" height="88.64"/>
		<path class="st0" d="M442.03,380.03c5.33,0,10.11,2.05,13.52,5.46c1.91,2.05,3.42,4.51,4.37,7.1h25.95
			c-2.05-14.89-11.61-27.45-24.86-33.6c-5.74-2.73-12.16-4.37-18.99-4.37c-6.69,0-13.25,1.64-18.98,4.37
			c-14.89,7.1-25.27,22.26-25.27,40.02v4.23c0,17.62,10.38,32.92,25.27,40.02c5.74,2.73,12.29,4.23,18.98,4.23
			c6.83,0,13.25-1.5,18.99-4.23c13.25-6.28,22.81-18.85,24.86-33.74h-25.95c-0.96,2.73-2.46,5.05-4.37,7.1
			c-3.41,3.41-8.19,5.6-13.52,5.6c-10.38,0-18.98-8.6-18.98-18.98v-4.23C423.04,388.5,431.65,380.03,442.03,380.03z"/>
		<path class="st0" d="M384.57,335.33c-3.6-18.79-32.96-22.91-32.96-22.91h-25.27V447.5h25.27V330.9
			C376.51,328.41,384.57,335.33,384.57,335.33z"/>
	</g>
</g>
</svg>
